<svg xmlns="http://www.w3.org/2000/svg" width="32" height="29" viewBox="0 0 32 29">
    <path fill="none" fill-rule="nonzero" stroke="#202022" stroke-width="2" d="M28.62 3.642a8.025 8.025 0 0 0-6-2.642c-1.732 0-3.318.554-4.714 1.646A9.708 9.708 0 0 0 16 4.659a9.702 9.702 0 0 0-1.906-2.013C12.698 1.554 11.112 1 9.381 1A8.025 8.025 0 0 0 3.38 3.642C1.845 5.326 1 7.627 1 10.12c0 2.567.946 4.916 2.975 7.394 1.816 2.217 4.426 4.467 7.449 7.072 1.032.89 2.202 1.899 3.416 2.973a1.748 1.748 0 0 0 2.32 0c1.214-1.074 2.384-2.083 3.417-2.973 3.022-2.605 5.632-4.855 7.448-7.072C30.055 15.036 31 12.687 31 10.12c0-2.493-.845-4.794-2.38-6.478z"/>
</svg>
